<svg width="518" height="518" viewBox="0 0 518 518" fill="none" xmlns="http://www.w3.org/2000/svg">
<path fill-rule="evenodd" clip-rule="evenodd" d="M259 509.301C397.101 509.301 509.055 397.348 509.055 259.247C509.055 121.145 397.101 9.19191 259 9.19191C120.899 9.19191 8.94533 121.145 8.94533 259.247C8.94533 397.348 120.899 509.301 259 509.301ZM259 517.888C401.844 517.888 517.642 402.09 517.642 259.247C517.642 116.403 401.844 0.60498 259 0.60498C116.156 0.60498 0.358398 116.403 0.358398 259.247C0.358398 402.09 116.156 517.888 259 517.888Z" fill="#191919" fill-opacity="0.5"/>
<path fill-rule="evenodd" clip-rule="evenodd" d="M259 460.806C369.478 460.806 459.09 370.922 459.09 259.981C459.09 149.04 369.478 59.1568 259 59.1568C148.522 59.1568 58.9104 149.04 58.9104 259.981C58.9104 370.922 148.522 460.806 259 460.806ZM259 469.393C374.249 469.393 467.677 375.636 467.677 259.981C467.677 144.327 374.249 50.5698 259 50.5698C143.751 50.5698 50.3235 144.327 50.3235 259.981C50.3235 375.636 143.751 469.393 259 469.393Z" fill="#191919" fill-opacity="0.5"/>
<path fill-rule="evenodd" clip-rule="evenodd" d="M259 416.719C345.158 416.719 415.003 346.874 415.003 260.716C415.003 174.558 345.158 104.713 259 104.713C172.842 104.713 102.997 174.558 102.997 260.716C102.997 346.874 172.842 416.719 259 416.719ZM259 425.306C349.901 425.306 423.59 351.617 423.59 260.716C423.59 169.815 349.901 96.126 259 96.126C168.1 96.126 94.4102 169.815 94.4102 260.716C94.4102 351.617 168.1 425.306 259 425.306Z" fill="#191919" fill-opacity="0.5"/>
<path fill-rule="evenodd" clip-rule="evenodd" d="M258.265 369.693C318.858 369.693 367.978 320.574 367.978 259.981C367.978 199.389 318.858 150.269 258.265 150.269C197.673 150.269 148.553 199.389 148.553 259.981C148.553 320.574 197.673 369.693 258.265 369.693ZM258.265 378.28C323.6 378.28 376.565 325.316 376.565 259.981C376.565 194.646 323.6 141.682 258.265 141.682C192.931 141.682 139.966 194.646 139.966 259.981C139.966 325.316 192.931 378.28 258.265 378.28Z" fill="#191919" fill-opacity="0.5"/>
<path d="M326.6 259.981C326.6 297.721 296.005 328.315 258.265 328.315C220.525 328.315 189.931 297.721 189.931 259.981C189.931 222.241 220.525 191.646 258.265 191.646C296.005 191.646 326.6 222.241 326.6 259.981Z" fill="#191919" fill-opacity="0.19"/>
</svg>
