<svg width="1420" height="503" viewBox="0 0 1420 503" fill="none" xmlns="http://www.w3.org/2000/svg">
<g style="mix-blend-mode:difference" opacity="0.4">
<g style="mix-blend-mode:screen" opacity="0.05">
<circle cx="1316.17" cy="590.471" r="653.632" transform="rotate(-62.4343 1316.17 590.471)" fill="#9291EB" stroke="#171717" stroke-width="47.3"/>
<path d="M1559.81 127.914C1816.77 262.057 1916.61 578.296 1783.03 834.181C1649.45 1090.07 1332.91 1188.95 1075.95 1054.81C818.98 920.663 719.146 604.423 852.725 348.539C986.303 92.6539 1302.84 -6.22882 1559.81 127.914Z" fill="#9291EB" stroke="#171717" stroke-width="47.3"/>
<circle cx="1319.58" cy="592.251" r="407.347" transform="rotate(-62.4343 1319.58 592.251)" fill="#9291EB" stroke="#171717" stroke-width="47.3"/>
<circle cx="1316.98" cy="593.064" r="286.129" transform="rotate(-62.4343 1316.98 593.064)" fill="#9291EB" stroke="#171717" stroke-width="47.3"/>
<circle cx="1316.98" cy="593.066" r="155.291" transform="rotate(-62.4343 1316.98 593.066)" fill="#9291EB" stroke="#171717" stroke-width="47.3"/>
</g>
<g style="mix-blend-mode:screen" opacity="0.05">
<circle cx="99.2946" cy="-44.7682" r="653.632" transform="rotate(-62.4343 99.2946 -44.7682)" fill="#9291EB" stroke="#171717" stroke-width="47.3"/>
<path d="M342.932 -507.326C599.898 -373.183 699.731 -56.9431 566.153 198.942C432.574 454.826 116.036 553.709 -140.929 419.566C-397.895 285.424 -497.729 -30.8161 -364.15 -286.701C-230.572 -542.585 85.9665 -641.468 342.932 -507.326Z" fill="#9291EB" stroke="#171717" stroke-width="47.3"/>
<circle cx="102.71" cy="-42.9887" r="407.347" transform="rotate(-62.4343 102.71 -42.9887)" fill="#9291EB" stroke="#171717" stroke-width="47.3"/>
<circle cx="100.109" cy="-42.1752" r="286.129" transform="rotate(-62.4343 100.109 -42.1752)" fill="#9291EB" stroke="#171717" stroke-width="47.3"/>
<circle cx="100.109" cy="-42.1729" r="155.291" transform="rotate(-62.4343 100.109 -42.1729)" fill="#9291EB" stroke="#171717" stroke-width="47.3"/>
</g>
</g>
</svg>
