<svg width="37" height="37" viewBox="0 0 37 37" fill="none" xmlns="http://www.w3.org/2000/svg">
<g id="fi_4140320">
<g id="people-businessman-alarm-alert-notification">
<path id="Vector" d="M18.5 34.9248C27.5091 34.9248 34.8125 27.6215 34.8125 18.6123C34.8125 9.60316 27.5091 2.2998 18.5 2.2998C9.49085 2.2998 2.1875 9.60316 2.1875 18.6123C2.1875 27.6215 9.49085 34.9248 18.5 34.9248Z" fill="#9291EB"/>
<path id="Vector_2" d="M18.5 32.6748C26.2665 32.6748 32.5625 26.3788 32.5625 18.6123C32.5625 10.8458 26.2665 4.5498 18.5 4.5498C10.7335 4.5498 4.4375 10.8458 4.4375 18.6123C4.4375 26.3788 10.7335 32.6748 18.5 32.6748Z" fill="#9291EB"/>
<path id="Vector_3" d="M18.5 15.7998C20.0533 15.7998 21.3125 14.5406 21.3125 12.9873C21.3125 11.434 20.0533 10.1748 18.5 10.1748C16.9467 10.1748 15.6875 11.434 15.6875 12.9873C15.6875 14.5406 16.9467 15.7998 18.5 15.7998Z" fill="#0E4A56"/>
<path id="Vector_4" d="M12.3125 16.9248C13.5551 16.9248 14.5625 15.9174 14.5625 14.6748C14.5625 13.4322 13.5551 12.4248 12.3125 12.4248C11.0699 12.4248 10.0625 13.4322 10.0625 14.6748C10.0625 15.9174 11.0699 16.9248 12.3125 16.9248Z" fill="#0E4A56"/>
<path id="Vector_5" d="M24.6875 16.9248C25.9301 16.9248 26.9375 15.9174 26.9375 14.6748C26.9375 13.4322 25.9301 12.4248 24.6875 12.4248C23.4449 12.4248 22.4375 13.4322 22.4375 14.6748C22.4375 15.9174 23.4449 16.9248 24.6875 16.9248Z" fill="#0E4A56"/>
<path id="Vector_6" d="M24.6875 16.9248C25.881 16.9248 27.0256 17.3989 27.8695 18.2428C28.7134 19.0867 29.1875 20.2313 29.1875 21.4248V23.6748C29.1875 23.9732 29.069 24.2593 28.858 24.4703C28.647 24.6813 28.3609 24.7998 28.0625 24.7998H21.3125C21.0141 24.7998 20.728 24.6813 20.517 24.4703C20.306 24.2593 20.1875 23.9732 20.1875 23.6748V21.4248C20.1875 20.2313 20.6616 19.0867 21.5055 18.2428C22.3494 17.3989 23.494 16.9248 24.6875 16.9248Z" fill="#E9E4D4"/>
<path id="Vector_7" d="M12.3125 16.9248C13.506 16.9248 14.6506 17.3989 15.4945 18.2428C16.3384 19.0867 16.8125 20.2313 16.8125 21.4248V23.6748C16.8125 23.9732 16.694 24.2593 16.483 24.4703C16.272 24.6813 15.9859 24.7998 15.6875 24.7998H8.9375C8.63913 24.7998 8.35298 24.6813 8.14201 24.4703C7.93103 24.2593 7.8125 23.9732 7.8125 23.6748V21.4248C7.8125 20.2313 8.28661 19.0867 9.13052 18.2428C9.97443 17.3989 11.119 16.9248 12.3125 16.9248Z" fill="#E9E4D4"/>
<path id="Vector_8" d="M18.5 15.7998C17.0082 15.7998 15.5774 16.3924 14.5225 17.4473C13.4676 18.5022 12.875 19.933 12.875 21.4248V24.7998C12.875 25.0982 12.9935 25.3843 13.2045 25.5953C13.4155 25.8063 13.7016 25.9248 14 25.9248H23C23.2984 25.9248 23.5845 25.8063 23.7955 25.5953C24.0065 25.3843 24.125 25.0982 24.125 24.7998V21.4248C24.125 19.933 23.5324 18.5022 22.4775 17.4473C21.4226 16.3924 19.9918 15.7998 18.5 15.7998Z" fill="#FDF8E8"/>
</g>
</g>
</svg>
