<svg width="37" height="37" viewBox="0 0 37 37" fill="none" xmlns="http://www.w3.org/2000/svg">
<g id="fi_2345069">
<g id="Success">
<path id="Vector" d="M29.1875 5.1123H34.8125V9.0498H29.1875V5.1123Z" fill="#7E7DD7"/>
<path id="Vector_2" d="M30.3125 5.1123V3.4248H24.6875V7.3623H29.1875H30.3125V5.1123Z" fill="#9291EB"/>
<path id="Vector_3" d="M24.6875 1.7373C24.8367 1.7373 24.9798 1.79657 25.0852 1.90206C25.1907 2.00755 25.25 2.15062 25.25 2.2998V18.0498H24.125V2.2998C24.125 2.15062 24.1843 2.00755 24.2898 1.90206C24.3952 1.79657 24.5383 1.7373 24.6875 1.7373Z" fill="#7E7DD7"/>
<path id="Vector_4" d="M10.625 27.3311L8.9375 24.7998L7.25 27.3311L3.875 32.3936L2.1875 34.9248H6.6875L11.1875 28.1748L10.625 27.3311Z" fill="#003642"/>
<path id="Vector_5" d="M17.375 23.9544L15.6875 21.4248L14 23.9561L11.1875 28.1748L6.6875 34.9248H14.5625L19.0451 26.4581L17.375 23.9544Z" fill="#04404C"/>
<path id="Vector_6" d="M19.0451 26.4581L14.5625 34.9248H34.8125L24.6875 15.7998L19.0451 26.4581Z" fill="#0E4A56"/>
</g>
</g>
</svg>
