<svg width="37" height="37" viewBox="0 0 37 37" fill="none" xmlns="http://www.w3.org/2000/svg">
<g id="fi_4086235" clip-path="url(#clip0_10_1924)">
<g id="Group">
<path id="Vector" d="M20.8066 26.5435C21.2215 26.1287 21.6996 25.8263 22.2129 25.6365C21.0809 24.1248 21.2637 21.8256 22.6348 20.5037L22.6699 20.4685C23.8371 19.3013 25.5598 19.0131 26.9941 19.6037C27.177 18.9779 27.5215 18.4013 27.9926 17.9302L28.0277 17.8951C29.5043 16.3552 32.1691 16.3552 33.6527 17.8951L33.7512 17.9935L33.9551 17.7896C37.3441 14.4076 37.3441 8.90915 33.9691 5.52712C30.5871 2.14509 25.0887 2.14509 21.7137 5.52712L19.6957 7.54509L23.5277 11.2717C25.2363 12.8537 25.2574 15.7787 23.577 17.3888C21.9809 19.0553 19.1051 19.0553 17.509 17.3888L16.1801 16.074C16.1379 16.0318 16.0676 16.0318 16.0324 16.074L7.81992 24.2795C7.29961 24.7787 7.29961 25.6857 7.81992 26.1849C8.34727 26.7123 9.20508 26.7123 9.72539 26.1849C9.73945 26.1709 12.0949 23.8154 12.0949 23.8154C12.559 23.3513 13.3184 23.3513 13.7824 23.8154C14.2465 24.2795 14.2465 25.0388 13.7824 25.5029L11.5465 27.7388C10.9488 28.3084 10.9488 29.342 11.5465 29.9115C12.116 30.5092 13.1496 30.5092 13.7191 29.9115L15.948 27.6826C16.4121 27.2185 17.1715 27.2185 17.6355 27.6826C18.0996 28.1467 18.0996 28.906 17.6355 29.3701L15.4207 31.5849C14.809 32.1826 14.802 33.167 15.4066 33.7717C15.9762 34.3693 17.0098 34.3693 17.5793 33.7717L20.0754 31.2756C19.2387 29.7779 19.5199 27.767 20.7574 26.5646L20.8066 26.5435Z" fill="#0E4A56"/>
<path id="Vector_2" d="M2.89083 5.80137C-0.294329 8.98653 -0.301361 14.1686 2.87676 17.3607L7.23614 21.4811L14.3377 14.3795C15.2658 13.4092 16.9393 13.4092 17.8674 14.3795L19.1893 15.7014C19.8994 16.4397 21.1721 16.4397 21.8752 15.7014C22.2408 15.3357 22.4377 14.8576 22.4307 14.3443C22.4236 13.8311 22.2197 13.3529 21.8541 12.9943L14.4713 5.81544C11.2861 2.61622 6.08301 2.60919 2.89083 5.80137Z" fill="#9291EB"/>
<path id="Vector_3" d="M30.158 28.0271L30.1932 27.9919C30.8049 27.4013 30.8119 26.3396 30.1932 25.749L27.9994 23.5552L26.6072 22.163C25.9885 21.5443 24.983 21.5443 24.3643 22.163L24.3291 22.1982C23.7174 22.7888 23.7104 23.8505 24.3291 24.4412L27.915 28.0271C28.5338 28.6458 29.5393 28.6458 30.158 28.0271Z" fill="#9291EB"/>
<path id="Vector_4" d="M34.1309 24.0545L34.166 24.0194C34.7848 23.4006 34.7848 22.3951 34.166 21.7764L31.9723 19.5826C31.3816 18.9709 30.3199 18.9639 29.7293 19.5826L29.6941 19.6178C29.0824 20.2084 29.0824 21.2701 29.6941 21.8608L31.8879 24.0545C32.5066 24.6733 33.5121 24.6733 34.1309 24.0545Z" fill="#9291EB"/>
<path id="Vector_5" d="M23.8861 31.9365C24.5049 32.5553 25.5104 32.5553 26.1291 31.9365L26.1643 31.9014C26.783 31.2826 26.783 30.2772 26.1643 29.6584L24.7439 28.2381C24.1252 27.6194 23.1197 27.6194 22.501 28.2381L22.4658 28.2733C21.8541 28.8639 21.8471 29.9256 22.4658 30.5162L23.8861 31.9365Z" fill="#9291EB"/>
</g>
</g>
<defs>
<clipPath id="clip0_10_1924">
<rect width="36" height="36" fill="white" transform="translate(0.5 0.612305)"/>
</clipPath>
</defs>
</svg>
