<svg width="1378" height="501" viewBox="0 0 1378 501" fill="none" xmlns="http://www.w3.org/2000/svg">
<g opacity="0.4">
<g style="mix-blend-mode:screen" opacity="0.05">
<path d="M1342.85 239.431C1348.93 598.791 1061.36 895.186 700.329 901.251C339.3 907.316 41.8538 620.75 35.7681 261.39C29.6825 -97.9711 317.257 -394.366 678.285 -400.431C1039.31 -406.496 1336.76 -119.93 1342.85 239.431Z" fill="#FDF8E8" stroke="black" stroke-width="47.3"/>
<path d="M1212.06 243.545C1216.95 532.08 986.89 769.934 698.19 774.785C409.49 779.635 171.51 549.643 166.623 261.108C161.737 -27.4269 391.794 -265.282 680.494 -270.132C969.194 -274.982 1207.17 -44.9903 1212.06 243.545Z" fill="#FDF8E8" stroke="black" stroke-width="47.3"/>
<path d="M1096.66 247.404C1100.46 471.306 921.272 656.038 696.243 659.819C471.214 663.599 285.877 484.991 282.085 261.088C278.294 37.1857 457.478 -147.546 682.506 -151.327C907.535 -155.107 1092.87 23.5008 1096.66 247.404Z" fill="#FDF8E8" stroke="black" stroke-width="47.3"/>
<path d="M973.508 247.552C976.17 404.784 850.334 534.557 692.243 537.213C534.151 539.869 403.993 414.396 401.33 257.164C398.667 99.9322 524.503 -29.8408 682.595 -32.4968C840.686 -35.1527 970.845 90.3196 973.508 247.552Z" fill="#FDF8E8" stroke="black" stroke-width="47.3"/>
<ellipse cx="178.941" cy="178.228" rx="178.941" ry="178.228" transform="matrix(0.999859 -0.0167977 0.0169323 0.999857 505.482 77.1595)" fill="#FDF8E8"/>
</g>
</g>
</svg>
