<svg width="37" height="37" viewBox="0 0 37 37" fill="none" xmlns="http://www.w3.org/2000/svg">
<g id="fi_7959245">
<path id="Vector" fill-rule="evenodd" clip-rule="evenodd" d="M28.1702 25.348L31.6586 31.3901L26.3035 30.3091L24.562 35.4873L20.7967 28.9655C23.6208 28.5059 26.1655 27.2136 28.1702 25.348ZM18.5 1.7373C11.2017 1.7373 5.28516 7.65382 5.28516 14.9522C5.28516 22.2506 11.2017 28.1671 18.5 28.1671C25.7984 28.1671 31.7149 22.2506 31.7149 14.9522C31.7149 7.65382 25.7984 1.7373 18.5 1.7373ZM18.5 9.10092L20.152 13.296L24.6524 13.5709L21.173 16.4385L22.3023 20.8035L18.5 18.3805L14.6977 20.8034L15.827 16.4384L12.3477 13.5709L16.848 13.296L18.5 9.10092ZM18.5 4.77052C24.1231 4.77052 28.6817 9.32909 28.6817 14.9522C28.6817 20.5752 24.1231 25.1339 18.5 25.1339C12.877 25.1339 8.31837 20.5753 8.31837 14.9522C8.31837 9.32909 12.877 4.77052 18.5 4.77052ZM18.5 5.75496C23.5796 5.75496 27.6973 9.8726 27.6973 14.9522C27.6973 20.0318 23.5796 24.1494 18.5 24.1494C13.4205 24.1494 9.30281 20.0318 9.30281 14.9522C9.30281 9.8726 13.4205 5.75496 18.5 5.75496ZM8.82989 25.348C10.8345 27.2136 13.3792 28.5059 16.2034 28.9655L12.5831 35.2361L10.8416 30.0579L5.48646 31.1388L8.82989 25.348Z" fill="#0E4A56"/>
</g>
</svg>
