<svg width="100" height="22" viewBox="0 0 100 22" fill="none" xmlns="http://www.w3.org/2000/svg">
<path fill-rule="evenodd" clip-rule="evenodd" d="M7.53985 6.78218C6.92726 6.16757 5.98478 5.62381 4.66528 5.62381C1.74361 5.62381 0 8.08238 0 10.7064C0 13.7324 2.16772 15.8836 5.08939 15.8836C7.79609 15.8836 9.99031 13.6894 9.99031 10.9827V0.517578H7.53985V6.78218ZM5.08939 13.4487C3.67569 13.4487 2.49756 12.2667 2.49756 10.7064C2.49756 9.21708 3.67569 7.9642 5.06587 7.9642C6.47957 7.9642 7.53985 9.02799 7.53985 10.3991V10.9982C7.53985 12.3516 6.44274 13.4487 5.08939 13.4487Z" fill="white"/>
<path fill-rule="evenodd" clip-rule="evenodd" d="M16.1948 5.33346C13.391 5.33346 11.129 7.67379 11.129 10.6288C11.129 13.6311 13.226 15.9005 16.2184 15.9005C18.4568 15.9005 20.3181 14.4112 21.025 12.3782H18.4097C17.962 13.0401 17.2786 13.5602 16.2184 13.5602C14.7811 13.5602 13.6737 12.6146 13.5558 11.1489H21.2606C21.4491 7.9102 19.3286 5.33346 16.1948 5.33346ZM13.7444 9.49408C14.0978 8.4539 15.0167 7.65019 16.2184 7.65019C17.4907 7.65019 18.3154 8.54847 18.6688 9.49408H13.7444Z" fill="white"/>
<path fill-rule="evenodd" clip-rule="evenodd" d="M26.4255 13.7597C25.5537 13.7597 25.0117 13.3342 24.7997 12.6486H22.3257C22.4906 14.067 23.5273 15.8637 26.2369 15.8637C28.3576 15.8637 30.0776 14.658 30.0776 12.625C30.0776 11.0411 29.0644 10.19 27.3208 9.64632C25.4358 9.10262 24.7997 8.67705 24.7997 8.13336C24.7997 7.68418 25.2945 7.32959 25.9542 7.32959C26.8496 7.32959 27.4622 7.84968 27.5093 8.46429H29.9833C29.7006 6.71498 28.4753 5.29654 26.0014 5.29654C24.1399 5.29654 22.2785 6.40764 22.2785 8.34611C22.2785 10.2137 24.1164 11.112 25.6008 11.5139C26.6611 11.8212 27.6035 12.0812 27.6035 12.7668C27.6035 13.3105 27.1794 13.7597 26.4255 13.7597Z" fill="white"/>
<path fill-rule="evenodd" clip-rule="evenodd" d="M36.2931 15.9135C39.1206 15.9135 41.4061 13.5495 41.4061 10.6891C41.4061 9.74347 41.1233 8.79786 40.6285 8.04135H42.6077V5.58279H36.246C33.4657 5.58279 31.1566 7.85225 31.1566 10.6891C31.1566 13.5495 33.4421 15.9135 36.2931 15.9135ZM36.2931 8.11227C37.7068 8.11227 38.8849 9.34155 38.8849 10.6891C38.8849 12.1784 37.7304 13.384 36.2931 13.384C34.8323 13.384 33.6778 12.1784 33.6778 10.6891C33.6778 9.22338 34.8558 8.11227 36.2931 8.11227ZM40.9113 14.2114C39.1206 17.9465 35.9397 19.1994 31.5807 19.034L31.4629 21.4689C36.8822 21.658 40.9584 19.8141 43.079 15.2516L40.9113 14.2114Z" fill="white"/>
<path fill-rule="evenodd" clip-rule="evenodd" d="M31.1547 1.76007H31.2154C32.1195 1.76007 32.8525 2.49549 32.8525 3.40258V3.46342C32.8525 4.37057 32.1195 5.10593 31.2154 5.10593H31.1547C30.2506 5.10593 29.5176 4.37057 29.5176 3.46342V3.40258C29.5176 2.49549 30.2506 1.76007 31.1547 1.76007Z" fill="white"/>
<path d="M47.3882 5.62893C49.8622 5.62893 51.5116 7.00005 52.454 9.43496L54.6819 15.5434H52.0855L50.1921 10.3332C49.5795 8.74937 48.7313 8.08744 47.3882 8.08744H46.6813V15.5434H44.2545V5.62893H47.3882Z" fill="white"/>
<path fill-rule="evenodd" clip-rule="evenodd" d="M66.3387 12.6094C65.891 13.6023 64.9956 14.1224 63.9353 14.1224C62.498 14.1224 61.32 12.9876 61.32 11.3802C61.32 9.81989 62.498 8.63792 63.9353 8.63792C65.1135 8.63792 66.103 9.32345 66.48 10.5291H69.0247C68.6006 7.90507 66.4801 6.10844 63.9353 6.10844C61.155 6.10844 58.7988 8.4015 58.7988 11.3802C58.7988 14.3824 60.9901 16.6755 63.8175 16.6755C66.2915 16.6755 68.3885 15.0916 68.954 12.6094H66.3387Z" fill="white"/>
<path fill-rule="evenodd" clip-rule="evenodd" d="M88.6055 12.6094C88.1578 13.6023 87.2625 14.1224 86.2022 14.1224C84.7649 14.1224 83.5868 12.9876 83.5868 11.3802C83.5868 9.81989 84.7649 8.63792 86.2022 8.63792C87.3802 8.63792 88.3698 9.32345 88.7468 10.5291H91.2916C90.8675 7.90507 88.7468 6.10844 86.2022 6.10844C83.4218 6.10844 81.0656 8.4015 81.0656 11.3802C81.0656 14.3824 83.2569 16.6755 86.0843 16.6755C88.5584 16.6755 90.6554 15.0916 91.2209 12.6094H88.6055Z" fill="white"/>
<path fill-rule="evenodd" clip-rule="evenodd" d="M96.3482 14.5715C95.4764 14.5715 94.9345 14.146 94.7225 13.4605H92.2484C92.4134 14.8789 93.4501 16.6755 96.1597 16.6755C98.2803 16.6755 100 15.4699 100 13.4368C100 11.8529 98.9871 11.0019 97.2436 10.4582C95.3586 9.91446 94.7225 9.48895 94.7225 8.9452C94.7225 8.49608 95.2173 8.14149 95.877 8.14149C96.7723 8.14149 97.385 8.66152 97.4321 9.27619H99.9061C99.6233 7.52682 98.3981 6.10844 95.9241 6.10844C94.0627 6.10844 92.2013 7.21948 92.2013 9.15801C92.2013 11.0256 94.0391 11.9239 95.5235 12.3258C96.5839 12.633 97.5263 12.8931 97.5263 13.5787C97.5263 14.1224 97.1022 14.5715 96.3482 14.5715Z" fill="white"/>
<path d="M78.5249 10.2175C77.5822 7.78247 75.9334 6.41162 73.4593 6.41162H72.7523V0.517578H70.3255V16.3256H72.7523V8.86927H73.4593C74.8024 8.86927 75.6504 9.53103 76.2628 11.1149L78.1564 16.3256H80.753L78.5249 10.2175Z" fill="white"/>
<path fill-rule="evenodd" clip-rule="evenodd" d="M79.8872 1.8555H79.9478C80.852 1.8555 81.5849 2.59092 81.5849 3.49801V3.55885C81.5849 4.466 80.852 5.20136 79.9478 5.20136H79.8872C78.983 5.20136 78.2501 4.466 78.2501 3.55885V3.49801C78.2501 2.59092 78.983 1.8555 79.8872 1.8555Z" fill="white"/>
</svg>
