<svg width="101" height="60" viewBox="0 0 101 60" fill="none" xmlns="http://www.w3.org/2000/svg">
<path fill-rule="evenodd" clip-rule="evenodd" d="M13.8871 11.4132C12.7588 10.2935 11.0229 9.30285 8.59261 9.30285C3.21141 9.30285 0 13.782 0 18.5627C0 24.0755 3.99255 27.9948 9.37375 27.9948C14.359 27.9948 18.4004 23.9972 18.4004 19.066V0H13.8871V11.4132ZM9.37375 23.5587C6.76996 23.5587 4.60006 21.4052 4.60006 18.5627C4.60006 15.8493 6.76996 13.5667 9.33043 13.5667C11.9342 13.5667 13.8871 15.5048 13.8871 18.0028V19.0943C13.8871 21.5599 11.8664 23.5587 9.37375 23.5587Z" fill="#2D3638"/>
<path fill-rule="evenodd" clip-rule="evenodd" d="M29.828 8.77387C24.6637 8.77387 20.4976 13.0376 20.4976 18.4212C20.4976 23.891 24.3599 28.0256 29.8713 28.0256C33.9941 28.0256 37.4224 25.3123 38.7243 21.6083H33.9073C33.0827 22.8143 31.8242 23.7618 29.8713 23.7618C27.2241 23.7618 25.1845 22.0391 24.9674 19.3688H39.1583C39.5054 13.4683 35.5998 8.77387 29.828 8.77387ZM25.3147 16.3539C25.9656 14.4589 27.6581 12.9946 29.8713 12.9946C32.2148 12.9946 33.7337 14.6312 34.3846 16.3539H25.3147Z" fill="#2D3638"/>
<path fill-rule="evenodd" clip-rule="evenodd" d="M48.671 24.1253C47.0653 24.1253 46.0671 23.3501 45.6766 22.101H41.1199C41.4236 24.6852 43.3331 27.9584 48.3238 27.9584C52.2296 27.9584 55.3975 25.7618 55.3975 22.058C55.3975 19.1724 53.5315 17.6218 50.32 16.6313C46.8483 15.6408 45.6766 14.8654 45.6766 13.8749C45.6766 13.0566 46.5879 12.4105 47.803 12.4105C49.4522 12.4105 50.5804 13.3581 50.6673 14.4778H55.2239C54.7032 11.2908 52.4465 8.7066 47.8899 8.7066C44.4614 8.7066 41.0331 10.7309 41.0331 14.2625C41.0331 17.6649 44.4181 19.3016 47.1521 20.0337C49.1049 20.5937 50.8408 21.0674 50.8408 22.3164C50.8408 23.3069 50.0597 24.1253 48.671 24.1253Z" fill="#2D3638"/>
<path fill-rule="evenodd" clip-rule="evenodd" d="M66.8454 28.0492C72.0531 28.0492 76.2626 23.7424 76.2626 18.5311C76.2626 16.8083 75.7418 15.0855 74.8305 13.7073H78.4758V9.22811H66.7587C61.6378 9.22811 57.3849 13.3628 57.3849 18.5311C57.3849 23.7424 61.5944 28.0492 66.8454 28.0492ZM66.8454 13.8365C69.4492 13.8365 71.6191 16.0761 71.6191 18.5311C71.6191 21.2444 69.4926 23.4408 66.8454 23.4408C64.1549 23.4408 62.0284 21.2444 62.0284 18.5311C62.0284 15.8608 64.1982 13.8365 66.8454 13.8365ZM75.3513 24.9483C72.0531 31.7532 66.1945 34.0357 58.1661 33.7343L57.949 38.1704C67.9304 38.5149 75.438 35.1556 79.3438 26.8433L75.3513 24.9483Z" fill="#2D3638"/>
<path fill-rule="evenodd" clip-rule="evenodd" d="M57.3815 2.26364H57.4932C59.1585 2.26364 60.5084 3.60348 60.5084 5.25608V5.36691C60.5084 7.01962 59.1585 8.35935 57.4932 8.35935H57.3815C55.7162 8.35935 54.3662 7.01962 54.3662 5.36691V5.25608C54.3662 3.60348 55.7162 2.26364 57.3815 2.26364Z" fill="#2D3638"/>
<path d="M87.2807 9.31217C91.8373 9.31217 94.8751 11.8102 96.611 16.2462L100.714 27.375H95.9323L92.4448 17.8828C91.3166 14.9972 89.7543 13.7912 87.2807 13.7912H85.9787V27.375H81.5088V9.31217H87.2807Z" fill="#2D3638"/>
<path fill-rule="evenodd" clip-rule="evenodd" d="M26.3976 52.5922C25.5731 54.4011 23.9239 55.3486 21.9711 55.3486C19.3239 55.3486 17.1541 53.2812 17.1541 50.3526C17.1541 47.51 19.3239 45.3567 21.9711 45.3567C24.141 45.3567 25.9636 46.6056 26.658 48.8022H31.3448C30.5637 44.0215 26.658 40.7483 21.9711 40.7483C16.8503 40.7483 12.5106 44.9259 12.5106 50.3526C12.5106 55.8223 16.5465 60 21.7541 60C26.3108 60 30.1731 57.1144 31.2147 52.5922H26.3976Z" fill="#2D3638"/>
<path fill-rule="evenodd" clip-rule="evenodd" d="M67.4091 52.5922C66.5845 54.4011 64.9355 55.3486 62.9827 55.3486C60.3354 55.3486 58.1655 53.2812 58.1655 50.3526C58.1655 47.51 60.3354 45.3567 62.9827 45.3567C65.1525 45.3567 66.9751 46.6056 67.6695 48.8022H72.3564C71.5753 44.0215 67.6695 40.7483 62.9827 40.7483C57.8617 40.7483 53.522 44.9259 53.522 50.3526C53.522 55.8223 57.558 60 62.7656 60C67.3223 60 71.1847 57.1144 72.2262 52.5922H67.4091Z" fill="#2D3638"/>
<path fill-rule="evenodd" clip-rule="evenodd" d="M81.6699 56.1668C80.0642 56.1668 79.0661 55.3916 78.6755 54.1427H74.1188C74.4226 56.7268 76.332 60 81.3227 60C85.2284 60 88.3964 57.8035 88.3964 54.0996C88.3964 51.214 86.5303 49.6635 83.319 48.6729C79.8472 47.6823 78.6755 46.9071 78.6755 45.9165C78.6755 45.0982 79.5868 44.4522 80.802 44.4522C82.451 44.4522 83.5794 45.3996 83.6661 46.5195H88.2228C87.702 43.3324 85.4454 40.7483 80.8887 40.7483C77.4604 40.7483 74.032 42.7724 74.032 46.3042C74.032 49.7066 77.4169 51.3432 80.1509 52.0754C82.1039 52.6352 83.8398 53.109 83.8398 54.358C83.8398 55.3486 83.0585 56.1668 81.6699 56.1668Z" fill="#2D3638"/>
<path d="M48.8424 48.2344C47.1061 43.7981 44.0695 41.3006 39.5126 41.3006H38.2104V30.5625H33.7407V59.3625H38.2104V45.7781H39.5126C41.9863 45.7781 43.5482 46.9838 44.6761 49.8694L48.1638 59.3625H52.9463L48.8424 48.2344Z" fill="#2D3638"/>
<path fill-rule="evenodd" clip-rule="evenodd" d="M51.3516 33H51.4633C53.1286 33 54.4785 34.3398 54.4785 35.9925V36.1033C54.4785 37.756 53.1286 39.0957 51.4633 39.0957H51.3516C49.6863 39.0957 48.3363 37.756 48.3363 36.1033V35.9925C48.3363 34.3398 49.6863 33 51.3516 33Z" fill="#2D3638"/>
</svg>
