<svg width="217" height="132" viewBox="0 0 217 132" fill="none" xmlns="http://www.w3.org/2000/svg">
<path fill-rule="evenodd" clip-rule="evenodd" d="M30.1021 25.6767C27.6761 23.2427 23.9436 21.0893 18.718 21.0893C7.14735 21.0893 0.242188 30.8259 0.242188 41.2179C0.242188 53.2014 8.82695 61.7209 20.3976 61.7209C31.1169 61.7209 39.8066 53.0312 39.8066 42.3119V0.867188H30.1021V25.6767ZM20.3976 52.078C14.7989 52.078 10.1332 47.3968 10.1332 41.2179C10.1332 35.3196 14.7989 30.3579 20.3044 30.3579C25.9031 30.3579 30.1021 34.5708 30.1021 40.0008V42.3735C30.1021 47.7331 25.7572 52.078 20.3976 52.078Z" fill="#FFFCF5"/>
<path fill-rule="evenodd" clip-rule="evenodd" d="M64.3782 19.9394C53.2741 19.9394 44.316 29.2078 44.316 40.9104C44.316 52.8004 52.6208 61.7879 64.4714 61.7879C73.3361 61.7879 80.7077 55.8899 83.507 47.8384H73.1495C71.3765 50.4598 68.6704 52.5195 64.4714 52.5195C58.7793 52.5195 54.3938 48.7747 53.9271 42.9701H84.4402C85.1866 30.144 76.7887 19.9394 64.3782 19.9394ZM54.6737 36.4166C56.0734 32.2972 59.7125 29.1143 64.4714 29.1143C69.5104 29.1143 72.7762 32.6718 74.1759 36.4166H54.6737Z" fill="#FFFCF5"/>
<path fill-rule="evenodd" clip-rule="evenodd" d="M104.894 53.3096C101.442 53.3096 99.2955 51.6245 98.4557 48.9093H88.6581C89.3111 54.5268 93.4169 61.6419 104.148 61.6419C112.546 61.6419 119.358 56.8671 119.358 48.8159C119.358 42.5433 115.345 39.1727 108.44 37.0195C100.975 34.8664 98.4557 33.181 98.4557 31.0278C98.4557 29.2489 100.415 27.8447 103.028 27.8447C106.574 27.8447 109 29.9044 109.187 32.3384H118.984C117.865 25.4106 113.012 19.7932 103.215 19.7932C95.8429 19.7932 88.4713 24.1935 88.4713 31.8704C88.4713 39.2664 95.7498 42.8241 101.628 44.4156C105.827 45.6327 109.56 46.6624 109.56 49.3776C109.56 51.5308 107.88 53.3096 104.894 53.3096Z" fill="#FFFCF5"/>
<path fill-rule="evenodd" clip-rule="evenodd" d="M143.973 61.8393C155.171 61.8393 164.222 52.4772 164.222 41.1492C164.222 37.4043 163.102 33.6594 161.142 30.6634H168.981V20.9268H143.786C132.776 20.9268 123.631 29.9145 123.631 41.1492C123.631 52.4772 132.682 61.8393 143.973 61.8393ZM143.973 30.9443C149.572 30.9443 154.237 35.8126 154.237 41.1492C154.237 47.0472 149.665 51.8218 143.973 51.8218C138.188 51.8218 133.615 47.0472 133.615 41.1492C133.615 35.3446 138.281 30.9443 143.973 30.9443ZM162.262 55.0986C155.171 69.8907 142.573 74.8525 125.311 74.1973L124.844 83.8402C146.306 84.5891 162.449 77.2868 170.847 59.2179L162.262 55.0986Z" fill="#FFFCF5"/>
<path fill-rule="evenodd" clip-rule="evenodd" d="M123.624 5.78779H123.864C127.444 5.78779 130.347 8.70026 130.347 12.2926V12.5335C130.347 16.1261 127.444 19.0384 123.864 19.0384H123.624C120.043 19.0384 117.14 16.1261 117.14 12.5335V12.2926C117.14 8.70026 120.043 5.78779 123.624 5.78779Z" fill="#FFFCF5"/>
<path d="M187.913 21.1096C197.71 21.1096 204.242 26.5396 207.975 36.1825L216.798 60.3737H206.515L199.017 39.74C196.591 33.4674 193.231 30.8459 187.913 30.8459H185.113V60.3737H175.502V21.1096H187.913Z" fill="#FFFCF5"/>
<path fill-rule="evenodd" clip-rule="evenodd" d="M57.0023 115.19C55.2293 119.122 51.6833 121.181 47.4844 121.181C41.7923 121.181 37.1268 116.687 37.1268 110.321C37.1268 104.142 41.7923 99.4614 47.4844 99.4614C52.1501 99.4614 56.0691 102.176 57.5622 106.951H67.6397C65.9601 96.5591 57.5622 89.4439 47.4844 89.4439C36.4736 89.4439 27.1424 98.5251 27.1424 110.321C27.1424 122.211 35.8203 131.292 47.0178 131.292C56.8155 131.292 65.1204 125.02 67.3598 115.19H57.0023Z" fill="#FFFCF5"/>
<path fill-rule="evenodd" clip-rule="evenodd" d="M145.185 115.19C143.412 119.122 139.866 121.181 135.667 121.181C129.975 121.181 125.309 116.687 125.309 110.321C125.309 104.142 129.975 99.4614 135.667 99.4614C140.333 99.4614 144.252 102.176 145.745 106.951H155.823C154.143 96.5591 145.745 89.4439 135.667 89.4439C124.656 89.4439 115.325 98.5251 115.325 110.321C115.325 122.211 124.003 131.292 135.201 131.292C144.998 131.292 153.303 125.02 155.543 115.19H145.185Z" fill="#FFFCF5"/>
<path fill-rule="evenodd" clip-rule="evenodd" d="M175.848 122.96C172.396 122.96 170.25 121.275 169.41 118.56H159.612C160.265 124.177 164.371 131.292 175.102 131.292C183.5 131.292 190.312 126.518 190.312 118.466C190.312 112.194 186.299 108.823 179.394 106.67C171.929 104.517 169.41 102.832 169.41 100.678C169.41 98.8997 171.369 97.4954 173.982 97.4954C177.528 97.4954 179.954 99.5548 180.141 101.989H189.938C188.819 95.0611 183.966 89.4439 174.169 89.4439C166.797 89.4439 159.426 93.8439 159.426 101.521C159.426 108.917 166.704 112.475 172.582 114.066C176.782 115.283 180.514 116.313 180.514 119.028C180.514 121.181 178.834 122.96 175.848 122.96Z" fill="#FFFCF5"/>
<path d="M105.263 105.717C101.53 96.0735 95.0002 90.6446 85.202 90.6446H82.4019V67.3026H72.7912V129.907H82.4019V100.378H85.202C90.5209 100.378 93.8794 102.998 96.3045 109.271L103.804 129.907H114.087L105.263 105.717Z" fill="#FFFCF5"/>
<path fill-rule="evenodd" clip-rule="evenodd" d="M110.658 72.6011H110.898C114.479 72.6011 117.382 75.5135 117.382 79.1059V79.3468C117.382 82.9394 114.479 85.8516 110.898 85.8516H110.658C107.077 85.8516 104.175 82.9394 104.175 79.3468V79.1059C104.175 75.5135 107.077 72.6011 110.658 72.6011Z" fill="#FFFCF5"/>
</svg>
