<svg width="30" height="29" viewBox="0 0 30 29" fill="none" xmlns="http://www.w3.org/2000/svg">
<path d="M29.4034 14.5C29.4034 21.8644 22.9942 27.9034 15 27.9034C7.00578 27.9034 0.596591 21.8644 0.596591 14.5C0.596591 7.1356 7.00578 1.09659 15 1.09659C22.9942 1.09659 29.4034 7.1356 29.4034 14.5Z" stroke="#9291EB" stroke-width="1.19318"/>
<path d="M26.5054 14.5398C26.5054 20.4344 21.3915 25.2785 14.9997 25.2785C8.60792 25.2785 3.49405 20.4344 3.49405 14.5398C3.49405 8.64523 8.60792 3.80118 14.9997 3.80118C21.3915 3.80118 26.5054 8.64523 26.5054 14.5398Z" stroke="#9291EB" stroke-width="1.19318"/>
<path d="M23.9484 14.5795C23.9484 19.1323 19.9813 22.892 14.9996 22.892C10.0178 22.892 6.05069 19.1323 6.05069 14.5795C6.05069 10.0267 10.0178 6.267 14.9996 6.267C19.9813 6.267 23.9484 10.0267 23.9484 14.5795Z" stroke="#9291EB" stroke-width="1.19318"/>
<path d="M21.2217 14.5392C21.2217 17.7081 18.4565 20.346 14.9575 20.346C11.4584 20.346 8.69327 17.7081 8.69327 14.5392C8.69327 11.3702 11.4584 8.73233 14.9575 8.73233C18.4565 8.73233 21.2217 11.3702 21.2217 14.5392Z" stroke="#9291EB" stroke-width="1.19318"/>
<ellipse cx="14.9572" cy="14.5402" rx="3.96307" ry="3.69886" fill="#9291EB"/>
</svg>
